<svg xmlns="http://www.w3.org/2000/svg" viewBox="0 0 72.36 54.27"><defs><style>.cls-1{fill:#5c5b59;}</style></defs><g id="Camada_2" data-name="Camada 2"><g id="Design"><path class="cls-1" d="M62.56,34.78a5.73,5.73,0,0,0-4.63-4.55c-9.37-2.05-11.72-7.09-12.12-12.67a58.19,58.19,0,0,0-9.63-.6,58.19,58.19,0,0,0-9.63.6c-.4,5.58-2.75,10.62-12.11,12.67A5.74,5.74,0,0,0,9.8,34.78L8,46.45a6.89,6.89,0,0,0,7.1,7.82H57.26a6.89,6.89,0,0,0,7.1-7.82Zm-26.38,11C31.11,45.76,27,42,27,37.28s4.11-8.48,9.18-8.48,9.18,3.8,9.18,8.48S41.25,45.76,36.18,45.76ZM72.35,13.57C72.26,8.48,58.38,0,36.18,0S.09,8.48,0,13.57s.08,11.71,9.22,10.6c10.69-1.29,10-4.77,10-9.75,0-3.47,8.69-4.31,16.92-4.31S53.1,11,53.1,14.42c0,5-.66,8.46,10,9.75C72.27,25.28,72.43,18.66,72.35,13.57Z"/></g></g></svg>