<svg xmlns="http://www.w3.org/2000/svg" viewBox="0 0 269.94 132.76"><defs><style>.cls-1{fill:#fff;}</style></defs><g id="Camada_2" data-name="Camada 2"><g id="Layer_1" data-name="Layer 1"><path class="cls-1" d="M114.2,68.4C126,81.65,134.28,85,131.41,86.33c-10.24-1.06-19.59-3.22-24.32-5.93-8.43-4.85-8.45-39-3.9-60.28C100.08,37.55,102.64,55.42,114.2,68.4Z"/><path class="cls-1" d="M124,60.61c15.62,14.27,38.22,23.85,34.52,25.47-7.92,1.24-17.85,1.19-27.06.25C134.28,85,126,81.65,114.2,68.4c-11.56-13-14.12-30.85-11-48.28,1.31-6.19,3-11.29,5-14.29C101,20.05,108.21,46.23,124,60.61Z"/><path class="cls-1" d="M168,83.42a36.28,36.28,0,0,1-9.56,2.66c3.7-1.62-18.9-11.2-34.52-25.47S101,20.05,108.2,5.83c.08-.13.17-.26.26-.38.27,7.14,4.1,24.65,12.35,35.69C138.66,65,178.58,78.46,168,83.42Z"/><path class="cls-1" d="M122.68,43.49c-2.2-9.61,28.94-33.22,26.78-38.64-2.75-6.86-36-6.31-41.18.83C104.34,12.59,115.26,34.71,122.68,43.49Z"/><path class="cls-1" d="M11.85,132.08C2.69,132.08,0,129.26,0,121.42v-9.75C0,103.83,2.69,101,11.85,101H33.4v6H12.17c-4.24,0-5.29,1.23-5.29,5.06v9.12c0,3.87,1,5,5.33,5H33.4v5.92Z"/><path class="cls-1" d="M48.35,132.08c-9.16,0-11.84-2.82-11.84-10.66v-9.75c0-7.84,2.68-10.67,11.84-10.67H60.16c9.2,0,11.89,2.83,11.89,10.67v9.75c0,7.84-2.69,10.66-11.89,10.66ZM65.12,112c0-3.88-1.18-5-5.24-5H48.67c-4.37,0-5.28,1.14-5.28,5v9.16c0,4,.91,5,5.28,5H59.88c4.06,0,5.24-1,5.24-5Z"/><path class="cls-1" d="M105.09,131.31,82.44,110v22.1H76V103.19c0-2,1.5-2.87,3.69-2.87a4.31,4.31,0,0,1,3.23,1.14l22.84,22V101h6.56v28.9c0,2-1.41,2.86-3.46,2.86A5.16,5.16,0,0,1,105.09,131.31Z"/><path class="cls-1" d="M128.11,132.08c-9.16,0-11.85-2.82-11.85-10.66v-9.75c0-7.84,2.69-10.67,11.85-10.67h21.55v6H128.43c-4.24,0-5.29,1.23-5.29,5.06v9.12c0,3.87,1,5,5.33,5h21.19v5.92Z"/><path class="cls-1" d="M164.61,132.08c-9.15,0-11.85-2.82-11.85-10.66v-9.75c0-7.84,2.7-10.67,11.85-10.67h7.66v5.88h-7.66c-4,0-5,1.19-5,4.79v2.09h26.48v5.52H159.65v2.18c0,3.74.91,4.74,5,4.74h21.7v5.88Z"/><path class="cls-1" d="M189.68,132.08V101h6.93v31.08Z"/><path class="cls-1" d="M212.15,132.08V107h-13v-6h33v6h-13v25.11Z"/><path class="cls-1" d="M246.24,132.08c-9.16,0-11.85-2.82-11.85-10.66v-9.75c0-7.84,2.69-10.67,11.85-10.67H258c9.21,0,11.9,2.83,11.9,10.67v9.75c0,7.84-2.69,10.66-11.9,10.66ZM263,112c0-3.88-1.18-5-5.24-5H246.56c-4.38,0-5.29,1.14-5.29,5v9.16c0,4,.91,5,5.29,5h11.21c4.06,0,5.24-1,5.24-5Z"/></g></g></svg>