<svg xmlns="http://www.w3.org/2000/svg" viewBox="0 0 260.86 152.42"><defs><style>.cls-1{fill:#fff;}</style></defs><g id="Camada_2" data-name="Camada 2"><g id="Layer_1" data-name="Layer 1"><polygon class="cls-1" points="111.64 35.11 111.64 17.82 120.81 12.17 120.81 29.64 111.64 35.11"/><polygon class="cls-1" points="106.35 44.58 106.35 84.85 120.64 92.61 120.64 36.2 106.35 44.58"/><polygon class="cls-1" points="87.12 63.68 97.53 57.16 97.53 78.5 87.3 73.92 87.12 63.68"/><polygon class="cls-1" points="132.64 0 155.92 13.58 155.92 57.69 143.4 65.09 143.4 90.14 132.99 96.5 132.64 0"/><polygon class="cls-1" points="150.81 70.03 159.45 64.39 159.45 80.62 150.98 85.38 150.81 70.03"/><polygon class="cls-1" points="166.15 76.92 166.15 53.45 173.74 57.51 173.56 72.5 166.15 76.92"/><path class="cls-1" d="M0,152.16l14.62-40.28H26.3l13.79,40.28H17.51v-8.53H26.3l-5.84-18.09L10.9,152.16Z"/><path class="cls-1" d="M75.38,152.23H64.54V152h-.19V120.6H54.66l-.13,31.63H43.69v-40l52.41-.06.12-.13h.07l-.07.19-.12,40H85.32l.06-30.09h-.06V120.6H75.44Z"/><path class="cls-1" d="M100,112.2H131.7l-3.14,8.6h-17.7v7.31h17.7v8.4h-17.7v7.06l20.84-.07-3.07,8.73H100Z"/><path class="cls-1" d="M146.34,152.29H135.43V133l-.06-.06.06-.06V112.2l26.17-.06a6,6,0,0,1,3.79,1.09,5.81,5.81,0,0,1,1.92,3.59V130.1a6.5,6.5,0,0,1-1.5,3.21,5.17,5.17,0,0,1-2.79,1.41v.19h-4.11l8.34,17.51H156L147.88,135v-6.87h8v-7.44H146Z"/><path class="cls-1" d="M181.76,152.23H171v-40h10.84Z"/><path class="cls-1" d="M217.24,112.2l-3.15,8.6h-17.7v22.77l20.85-.07-3.08,8.73h-25.6c-.6-.6-1.17-1.14-1.73-1.61a4.9,4.9,0,0,1-1.34-2.11V115.35a4.22,4.22,0,0,1,1.34-2,19.65,19.65,0,0,1,1.73-1.12Z"/><path class="cls-1" d="M220.77,152.16l14.63-40.28h11.67l13.79,40.28H238.28v-8.53h8.79l-5.83-18.09-9.56,26.62Z"/></g></g></svg>