<svg xmlns="http://www.w3.org/2000/svg" viewBox="0 0 233.54 151.37"><defs><style>.cls-1,.cls-2{fill:#fff;}.cls-2{opacity:0.8;}</style></defs><g id="Camada_2" data-name="Camada 2"><g id="Layer_1" data-name="Layer 1"><path class="cls-1" d="M5.76,117.28a19.47,19.47,0,0,1,6.59-4.39,19.92,19.92,0,0,1,15,0,19.51,19.51,0,0,1,6.6,4.39L36.67,120l-5.5,5.58-2.83-2.74a11.84,11.84,0,0,0-4-2.66,11.92,11.92,0,0,0-9,0,11.84,11.84,0,0,0-4,2.66,10.81,10.81,0,0,0-2.66,3.89,11.92,11.92,0,0,0,0,9,12.15,12.15,0,0,0,11.16,7.52,12.26,12.26,0,0,0,4.6-.88,10.89,10.89,0,0,0,3.9-2.66L31.17,137l5.5,5.58-2.75,2.74a19.51,19.51,0,0,1-6.6,4.39,19.92,19.92,0,0,1-15,0,19.47,19.47,0,0,1-6.59-4.39,18.88,18.88,0,0,1-4.34-6.55,20.44,20.44,0,0,1,0-15A18.88,18.88,0,0,1,5.76,117.28Z"/><path class="cls-1" d="M39.77,131.45a19.19,19.19,0,0,1,1.55-7.75A19.87,19.87,0,0,1,51.9,113.16a20,20,0,0,1,15.45,0,20.59,20.59,0,0,1,6.34,4.25A19.64,19.64,0,0,1,78,123.7a20,20,0,0,1,0,15.45,20.1,20.1,0,0,1-10.63,10.67,20,20,0,0,1-15.45,0,19.49,19.49,0,0,1-6.33-4.29,20.25,20.25,0,0,1-4.25-6.38A19.3,19.3,0,0,1,39.77,131.45Zm7.79,0a12,12,0,0,0,.93,4.69,11.84,11.84,0,0,0,6.42,6.42,12.32,12.32,0,0,0,9.39,0,11.84,11.84,0,0,0,6.42-6.42,12,12,0,0,0,.93-4.69,11.67,11.67,0,0,0-.93-4.65,12.15,12.15,0,0,0-15.81-6.38,11.94,11.94,0,0,0-6.42,6.38A11.67,11.67,0,0,0,47.56,131.45Z"/><path class="cls-1" d="M83.74,123.61a19.87,19.87,0,0,1,10.58-10.54,20.05,20.05,0,0,1,15.46,0,20.54,20.54,0,0,1,6.33,4.25,19.64,19.64,0,0,1,4.29,6.29,19.19,19.19,0,0,1,1.55,7.75v19.93h-7.88V131.36a11.7,11.7,0,0,0-.93-4.65A12,12,0,0,0,102,119.4a11.63,11.63,0,0,0-4.65.93,12,12,0,0,0-3.81,2.57A11.86,11.86,0,0,0,91,126.71a11.7,11.7,0,0,0-.93,4.65v19.93H82.19V131.36A19.19,19.19,0,0,1,83.74,123.61Z"/><path class="cls-1" d="M164.46,96.34v34.93a19.35,19.35,0,0,1-1.55,7.71,20.37,20.37,0,0,1-4.25,6.37,19.81,19.81,0,0,1-21.74,4.3A20.09,20.09,0,0,1,126.25,139a20.05,20.05,0,0,1,0-15.46,19.64,19.64,0,0,1,4.29-6.29,20.59,20.59,0,0,1,6.38-4.25,19.47,19.47,0,0,1,7.7-1.55h12V96.34Zm-19.84,47a11.8,11.8,0,0,0,4.65-.92,12,12,0,0,0,7.31-11.12v-12h-12a12,12,0,0,0-4.69.93,11.94,11.94,0,0,0-6.42,6.38,11.7,11.7,0,0,0-.93,4.65,11.91,11.91,0,0,0,7.35,11.12A12.18,12.18,0,0,0,144.62,143.31Z"/><path class="cls-1" d="M167.21,131.45a19.19,19.19,0,0,1,1.55-7.75,19.87,19.87,0,0,1,10.58-10.54,20.05,20.05,0,0,1,15.46,0,20.54,20.54,0,0,1,6.33,4.25,19.64,19.64,0,0,1,4.29,6.29,20,20,0,0,1,0,15.45,20.13,20.13,0,0,1-10.62,10.67,20.05,20.05,0,0,1-15.46,0,19.49,19.49,0,0,1-6.33-4.29,20.42,20.42,0,0,1-4.25-6.38A19.3,19.3,0,0,1,167.21,131.45Zm7.79,0a12.05,12.05,0,0,0,3.5,8.54,11.82,11.82,0,0,0,3.85,2.57,12.32,12.32,0,0,0,9.39,0,11.71,11.71,0,0,0,3.85-2.57,12.05,12.05,0,0,0,3.5-8.54,11.67,11.67,0,0,0-.93-4.65,12,12,0,0,0-2.57-3.81,11.87,11.87,0,0,0-3.85-2.57,12.05,12.05,0,0,0-15.81,6.38A11.67,11.67,0,0,0,175,131.45Z"/><path class="cls-1" d="M233.54,111.43v7.88h-4a11.63,11.63,0,0,0-4.65.93,12,12,0,0,0-6.38,6.38,11.7,11.7,0,0,0-.93,4.65V151.2h-8V131.27a19.23,19.23,0,0,1,1.55-7.75,19.64,19.64,0,0,1,4.29-6.29,20.59,20.59,0,0,1,6.38-4.25,19.49,19.49,0,0,1,7.71-1.55Z"/><path class="cls-1" d="M52.79,45.54C62.08,41.36,72,37.13,81.84,34.76c7.57-1.82,15.44-3.16,23.24-2.73,6,.32,11.28,2,15.84,5.95,2,1.72,4,3.63,6.58,4.43,5,1.54,9.1-2.44,13.2-4.51a30.91,30.91,0,0,1,13.05-3.32,25,25,0,0,1,9,1.34,40.26,40.26,0,0,1,14,8.07,36.63,36.63,0,0,1,2.86,2.85c.23.25,1.24,1.45,1.24,1.45l0,1.25s-16.44-19.46-37.09-5.26c-4.92,3.39-10,6.13-16.2,5.93a20.73,20.73,0,0,1-10.7-3.79c-3.19-2.11-5.84-4.71-9.41-6.24-11.68-5-24.29-2.06-36,1-5.84,1.54-11.69,3.14-17.36,5.26L52.79,47Z"/><path class="cls-1" d="M52.79,45.54C62.08,41.36,72,37.13,81.84,34.76c7.57-1.82,15.44-3.16,23.24-2.73,6,.32,11.28,2,15.84,5.95,2,1.72,4,3.63,6.58,4.43,5,1.54,9.1-2.44,13.2-4.51a30.91,30.91,0,0,1,13.05-3.32,25,25,0,0,1,9,1.34,40.26,40.26,0,0,1,14,8.07,36.63,36.63,0,0,1,2.86,2.85c.23.25,1.24,1.45,1.24,1.45l0,1.25s-16.44-19.46-37.09-5.26c-4.92,3.39-10,6.13-16.2,5.93a20.73,20.73,0,0,1-10.7-3.79c-3.19-2.11-5.84-4.71-9.41-6.24-11.68-5-24.29-2.06-36,1-5.84,1.54-11.69,3.14-17.36,5.26L52.79,47Z"/><path class="cls-1" d="M81.21,32.13a89.63,89.63,0,0,1,20.92-2.88c1,0,2.09,0,3.1.09,7.1.38,12.81,2.54,17.47,6.6l.46.41c1.71,1.5,3.33,2.92,5.14,3.48a4.64,4.64,0,0,0,1.46.23c2.1,0,4.27-1.34,6.57-2.75,1-.63,2.08-1.27,3.15-1.82a33.5,33.5,0,0,1,14.19-3.6l.94,0a27.76,27.76,0,0,1,4.42.35,43.8,43.8,0,0,0-85,1.93C76.44,33.39,78.83,32.71,81.21,32.13Z"/><path class="cls-1" d="M159.24,41.79a24.47,24.47,0,0,0-13.9,4.71c-4.84,3.33-10.27,6.42-17.11,6.42h-.7a23.32,23.32,0,0,1-12.12-4.24c-1.13-.76-2.19-1.55-3.21-2.33a27.74,27.74,0,0,0-5.76-3.68,32.21,32.21,0,0,0-12.89-2.47c-6.78,0-13.6,1.6-20.56,3.42v.18a43.8,43.8,0,1,0,87.59,0c0-.65,0-1.3-.05-1.95C160.1,41.81,159.67,41.79,159.24,41.79Z"/><path class="cls-2" d="M102.28,29.38c1,0,2.09,0,3.1.08,7.11.38,12.82,2.55,17.48,6.61l.46.41C125,38,126.65,39.4,128.47,40a4.84,4.84,0,0,0,1.46.23c2.09,0,4.27-1.34,6.57-2.75,1-.63,2.07-1.28,3.15-1.82A33.52,33.52,0,0,1,153.85,32h.94c.69,0,1.37,0,2,.07A41.14,41.14,0,0,0,76.74,33.5c1.54-.45,3.08-.87,4.62-1.24A89.16,89.16,0,0,1,102.28,29.38Z"/></g></g></svg>