<svg xmlns="http://www.w3.org/2000/svg" viewBox="0 0 266.16 112.99"><defs><style>.cls-1{fill:#fff;}</style></defs><g id="Camada_2" data-name="Camada 2"><g id="Layer_1" data-name="Layer 1"><path class="cls-1" d="M30.57,100.3a26.67,26.67,0,0,1-8.51,1.44C6.18,101.74,0,89.67,0,79.65c0-9.07,6.34-21.54,22.22-21.54,13,0,22,8.07,22,21.09a22.46,22.46,0,0,1-9.43,18.31l10.89,5.74c11.44,6,18.65,6.62,22.33,6.62a29.27,29.27,0,0,0,10.57-2,3.73,3.73,0,0,1,.81-.28.5.5,0,0,1,.49.51c0,.33-.27.5-.65.66A38.66,38.66,0,0,1,62,113c-8.18,0-14-2.17-22.92-7.57Zm6-19.6c0-13.46-8.13-19.92-15.61-19.92-7.1,0-13.44,4.67-13.44,17.59C7.53,91.62,15.34,99,24.06,99,28.4,99,36.58,97,36.58,80.7Z"/><path class="cls-1" d="M54,75c0-8.46,0-10-.11-11.8s-.54-2.79-2.33-3.17a10.12,10.12,0,0,0-2.11-.17c-.6,0-.92-.11-.92-.5s.38-.5,1.19-.5c2.87,0,6.29.16,7.91.16,1.3,0,4.72-.16,6.67-.16.81,0,1.19.11,1.19.5s-.33.5-.87.5a7.38,7.38,0,0,0-1.57.17c-1.46.27-1.9,1.22-2,3.17-.11,1.78-.11,3.34-.11,11.8v7.79c0,8.07,1.57,11.47,4.22,13.69a9.88,9.88,0,0,0,6.78,2.29,10.46,10.46,0,0,0,7.48-3c3-3.06,3.14-8.07,3.14-13.81V75c0-8.46,0-10-.11-11.8s-.54-2.79-2.33-3.17a9.5,9.5,0,0,0-1.95-.17c-.59,0-.92-.11-.92-.5s.38-.5,1.14-.5c2.76,0,6.18.16,6.23.16.65,0,4.07-.16,6.18-.16.76,0,1.14.11,1.14.5s-.33.5-1,.5a7.38,7.38,0,0,0-1.57.17c-1.46.27-1.9,1.22-2,3.17-.11,1.78-.11,3.34-.11,11.8v6c0,6.18-.6,12.75-5.15,16.76a15.92,15.92,0,0,1-11.27,4c-2.88,0-8.08-.16-12-3.84C56,95.34,54,91.23,54,83.15Z"/><path class="cls-1" d="M104,86.44c-.27,0-.38.11-.49.44l-2.92,8a10.87,10.87,0,0,0-.82,3.4c0,1,.49,1.72,2.17,1.72h.81c.66,0,.82.12.82.45s-.33.56-.92.56c-1.74,0-4.07-.17-5.75-.17-.59,0-3.58.17-6.39.17-.71,0-1-.12-1-.56s.21-.45.65-.45a15.13,15.13,0,0,0,1.68-.11c2.49-.33,3.52-2.22,4.6-5L110,59.89c.65-1.62,1-2.23,1.51-2.23s.82.5,1.36,1.78c1.3,3.07,10,25.77,13.44,34.23,2.06,5,3.63,5.79,4.77,6.07a11.36,11.36,0,0,0,2.28.22c.43,0,.7.06.7.45s-.49.56-2.49.56-5.91,0-10.25-.12c-1,0-1.62,0-1.62-.44s.22-.45.76-.5a.9.9,0,0,0,.48-1.28l-4.33-11.8a.52.52,0,0,0-.54-.39ZM115,83.66c.27,0,.32-.17.27-.34L110.4,69.57c-.05-.22-.11-.5-.27-.5s-.27.28-.33.5l-5,13.7c-.06.22,0,.39.21.39Z"/><path class="cls-1" d="M146.5,84.82c0,7.13,0,11,1.13,12,.93.84,2.34,1.23,6.56,1.23,2.88,0,5-.06,6.34-1.56a7.16,7.16,0,0,0,1.41-3.34c.06-.5.17-.84.6-.84s.43.28.43,1a45.46,45.46,0,0,1-.81,6.4c-.33,1.22-.6,1.5-3.41,1.5-3.91,0-6.73-.11-9.16-.16s-4.39-.17-6.62-.17c-.59,0-1.78,0-3.09,0s-2.65.12-3.73.12c-.71,0-1.09-.17-1.09-.56s.22-.45.87-.45a8.75,8.75,0,0,0,1.95-.22c1.08-.22,1.35-1.45,1.57-3.06.27-2.34.27-6.74.27-11.86V75c0-8.46,0-10-.11-11.8s-.54-2.79-2.33-3.17a7.32,7.32,0,0,0-1.79-.17c-.59,0-.92-.11-.92-.5s.38-.5,1.2-.5c2.54,0,6,.16,7.42.16,1.3,0,5.26-.16,7.37-.16.76,0,1.14.11,1.14.5s-.33.5-1,.5a13,13,0,0,0-2.11.17c-1.46.27-1.9,1.22-2,3.17-.11,1.78-.11,3.34-.11,11.8Z"/><path class="cls-1" d="M172.51,75c0-8.46,0-10-.11-11.8s-.65-2.84-1.84-3.12a7.39,7.39,0,0,0-1.95-.22c-.54,0-.87-.11-.87-.56s.44-.44,1.3-.44c2.06,0,5.48.16,7.05.16,1.35,0,4.55-.16,6.61-.16.71,0,1.14.11,1.14.44s-.33.56-.87.56a8.19,8.19,0,0,0-1.62.17c-1.47.27-1.9,1.22-2,3.17-.11,1.78-.11,3.34-.11,11.8v9.79c0,5.4,0,9.8.22,12.19.16,1.51.54,2.51,2.17,2.73a22.51,22.51,0,0,0,2.76.22c.6,0,.87.17.87.45s-.44.56-1,.56c-3.58,0-7-.17-8.46-.17-1.24,0-4.66.17-6.82.17-.71,0-1.09-.17-1.09-.56s.22-.45.87-.45a8.75,8.75,0,0,0,1.95-.22c1.08-.22,1.41-1.17,1.57-2.78.27-2.34.27-6.74.27-12.14Z"/><path class="cls-1" d="M204.22,62l-8.08.23c-3.14.11-4.44.39-5.26,1.61a6.77,6.77,0,0,0-.92,2c-.11.44-.27.67-.59.67s-.49-.28-.49-.89c0-.89,1-6,1.14-6.41.16-.72.32-1,.65-1a12.72,12.72,0,0,0,2.33.67c1.57.16,3.63.27,5.42.27h21.46a25.79,25.79,0,0,0,3.74-.27,12.33,12.33,0,0,1,1.46-.28c.38,0,.44.33.44,1.17,0,1.16-.17,5-.17,6.45,0,.56-.16.89-.48.89s-.55-.28-.6-1.11l-.05-.61c-.11-1.45-1.58-3-6.4-3.12L211,62V84.82c0,5.12,0,9.52.27,11.92.17,1.55.49,2.78,2.12,3a22.51,22.51,0,0,0,2.76.22c.6,0,.87.17.87.45s-.44.56-1,.56c-3.58,0-7-.17-8.51-.17-1.25,0-4.66.17-6.83.17-.71,0-1.08-.17-1.08-.56s.21-.45.86-.45a8.6,8.6,0,0,0,2-.22c1.09-.22,1.41-1.45,1.58-3.06.27-2.34.27-6.74.27-11.86Z"/><path class="cls-1" d="M241.83,86.55a12,12,0,0,0-1.25-5.85c-.38-.89-7.64-13.13-9.54-16a13.39,13.39,0,0,0-3.74-4.07,5.35,5.35,0,0,0-2.27-.72c-.44,0-.82-.11-.82-.5s.38-.5,1-.5c1,0,5,.16,6.83.16,1.14,0,3.36-.16,5.8-.16.54,0,.81.16.81.5s-.37.39-1.19.61a1,1,0,0,0-.76,1,5.39,5.39,0,0,0,.65,1.89c.76,1.67,8.35,15.09,9.22,16.65.54-1.34,7.37-13.58,8.13-15.31a7.43,7.43,0,0,0,.76-2.89,1.34,1.34,0,0,0-1.14-1.4c-.49-.11-1-.22-1-.55s.27-.5.92-.5c1.79,0,3.53.16,5.1.16,1.19,0,4.77-.16,5.8-.16.59,0,1,.11,1,.44s-.43.56-1,.56a5.65,5.65,0,0,0-2.38.67,8,8,0,0,0-2.93,2.72C258,65.51,250.45,78.59,249.47,81a13.72,13.72,0,0,0-.81,5.57v4.56c0,.89,0,3.23.16,5.57.11,1.61.6,2.84,2.22,3.06a22.5,22.5,0,0,0,2.71.22c.6,0,.87.17.87.45s-.43.56-1.14.56c-3.41,0-6.83-.17-8.29-.17s-4.77.17-6.78.17c-.75,0-1.19-.12-1.19-.56,0-.28.27-.45.87-.45a8.63,8.63,0,0,0,1.9-.22c1.08-.22,1.57-1.45,1.68-3.06.16-2.34.16-4.68.16-5.57Z"/><polygon class="cls-1" points="131.5 0 146.87 22.77 216.72 0.05 170.98 42.84 155.1 42.84 131.5 22.99 131.5 0"/><polygon class="cls-1" points="146.87 22.77 216.72 0.05 170.98 42.84 146.87 22.77"/><polygon class="cls-1" points="146.87 22.77 170.98 42.84 155.1 42.84 146.87 22.77"/><polygon class="cls-1" points="131.45 0 116.09 22.77 46.24 0.05 91.98 42.84 107.86 42.84 131.45 22.99 131.45 0"/><polygon class="cls-1" points="116.09 22.77 46.24 0.05 91.98 42.84 116.09 22.77"/><polygon class="cls-1" points="116.09 22.77 91.98 42.84 107.86 42.84 116.09 22.77"/></g></g></svg>