<svg xmlns="http://www.w3.org/2000/svg" viewBox="0 0 54.59 54.59"><defs><style>.cls-1{fill:#5c5b5a;}.cls-2{fill:#fff;fill-rule:evenodd;}</style></defs><g id="Camada_2" data-name="Camada 2"><g id="Design"><path class="cls-1" d="M27.29,54.59a27.3,27.3,0,1,1,27.3-27.3A27.33,27.33,0,0,1,27.29,54.59Z"/><path class="cls-2" d="M23,27.42V43.24a.41.41,0,0,0,.41.41H29.3a.41.41,0,0,0,.41-.41V27.16H34a.41.41,0,0,0,.41-.37l.41-4.85a.41.41,0,0,0-.41-.44H29.71V18.06a1.46,1.46,0,0,1,1.46-1.46h3.28a.41.41,0,0,0,.41-.41V11.35a.41.41,0,0,0-.41-.42H28.91a5.9,5.9,0,0,0-5.9,5.9V21.5H20.08a.41.41,0,0,0-.42.41v4.84a.41.41,0,0,0,.42.41H23Z"/></g></g></svg>