<svg xmlns="http://www.w3.org/2000/svg" viewBox="0 0 54.59 54.59"><defs><style>.cls-1{fill:#5c5b59;}.cls-2{fill:#fff;fill-rule:evenodd;}</style></defs><g id="Camada_2" data-name="Camada 2"><g id="Design"><path class="cls-1" d="M27.29,54.59a27.3,27.3,0,1,1,27.3-27.3A27.33,27.33,0,0,1,27.29,54.59Z"/><path class="cls-2" d="M28.58,9.53A16.48,16.48,0,0,0,14.73,34.94l-2.5,5.51a1.44,1.44,0,0,0,1.31,2,1.2,1.2,0,0,0,.38,0l6.9-1.89a16.48,16.48,0,1,0,7.76-31Zm0,30.07a13.62,13.62,0,0,1-6.85-1.85,1.41,1.41,0,0,0-.72-.19,1.2,1.2,0,0,0-.38,0l-4.51,1.23,1.57-3.45A1.46,1.46,0,0,0,17.55,34a13.6,13.6,0,1,1,11,5.65Z"/><path class="cls-2" d="M34.92,28.47a2.85,2.85,0,0,0-2.41-.54c-.62.26-1,1.23-1.42,1.73a.59.59,0,0,1-.77.17,10.84,10.84,0,0,1-5.43-4.65.67.67,0,0,1,.08-.91,3.72,3.72,0,0,0,1-1.6,3.59,3.59,0,0,0-.44-1.89,4.54,4.54,0,0,0-1.4-2.11A1.91,1.91,0,0,0,22,19a4.22,4.22,0,0,0-1.47,3.34,5.49,5.49,0,0,0,.13,1.07,9.25,9.25,0,0,0,1,2.35,18.72,18.72,0,0,0,1.07,1.61,16.54,16.54,0,0,0,4.61,4.29A14.36,14.36,0,0,0,30.28,33a6.33,6.33,0,0,0,3.35.52,4.08,4.08,0,0,0,3-2.25,2,2,0,0,0,.14-1.16C36.63,29.33,35.56,28.86,34.92,28.47Z"/></g></g></svg>